<?xml version="1.0" encoding="utf-8"?>
<!-- Generator: Adobe Illustrator 16.0.0, SVG Export Plug-In . SVG Version: 6.00 Build 0)  -->
<!DOCTYPE svg PUBLIC "-//W3C//DTD SVG 1.1//EN" "http://www.w3.org/Graphics/SVG/1.1/DTD/svg11.dtd">
<svg version="1.1" id="Layer_1" xmlns="http://www.w3.org/2000/svg" xmlns:xlink="http://www.w3.org/1999/xlink" x="0px" y="0px"
	 width="500px" height="195px" viewBox="0 0 500 195" enable-background="new 0 0 500 195" xml:space="preserve">
<g>
	<path fill="#39B54A" d="M272.796,75.89c2.223,0,4.038-0.536,5.451-1.612c1.412-1.071,2.366-3.017,2.861-5.834l10.465-59.345h12.226
		l-10.308,58.456c-2.299,13.04-9.303,19.56-21.009,19.56c-2.594,0-4.543-0.074-5.851-0.222l1.961-11.114
		C269.468,75.854,270.868,75.89,272.796,75.89z M315.167,13.323c3.786-3.407,8.681-5.112,14.683-5.112
		c5.999,0,10.292,1.705,12.878,5.112c2.584,3.408,3.33,8.224,2.233,14.446l-7.134,40.453c-1.098,6.224-3.541,11.04-7.327,14.447
		c-3.787,3.408-8.681,5.112-14.682,5.112s-10.296-1.704-12.878-5.112c-2.587-3.407-3.33-8.224-2.231-14.447l7.133-40.453
		C308.938,21.546,311.378,16.731,315.167,13.323z M317.777,76.668c4.225,0,6.786-2.557,7.688-7.669l7.407-42.008
		c0.901-5.112-0.76-7.668-4.981-7.668c-4.225,0-6.787,2.556-7.688,7.668L312.795,69C311.894,74.112,313.555,76.668,317.777,76.668z
		 M385.519,43.551l-4.351,24.671c-1.112,6.298-3.519,11.133-7.225,14.503c-3.707,3.372-8.524,5.057-14.449,5.057
		c-5.93,0-10.151-1.685-12.667-5.057c-2.519-3.37-3.223-8.205-2.111-14.503l7.134-40.453c1.11-6.295,3.518-11.13,7.225-14.502
		c3.705-3.37,8.521-5.057,14.449-5.057c5.927,0,10.149,1.687,12.667,5.057c2.517,3.372,3.221,8.207,2.11,14.502l-1.333,7.558H375.41
		l1.47-8.335c0.902-5.112-0.76-7.668-4.981-7.668c-4.225,0-6.786,2.556-7.687,7.668L356.804,69c-0.888,5.04,0.779,7.557,5.002,7.557
		s6.778-2.517,7.668-7.557L372,54.664h-5.556l1.958-11.112H385.519z M402.517,13.323c3.784-3.407,8.681-5.112,14.682-5.112
		s10.294,1.705,12.879,5.112c2.585,3.408,3.329,8.224,2.233,14.446l-7.135,40.453c-1.097,6.224-3.54,11.04-7.326,14.447
		c-3.787,3.408-8.681,5.112-14.682,5.112s-10.296-1.704-12.879-5.112c-2.587-3.407-3.328-8.224-2.23-14.447l7.133-40.453
		C396.288,21.546,398.729,16.731,402.517,13.323z M405.128,76.668c4.224,0,6.785-2.557,7.687-7.669l7.407-42.008
		c0.902-5.112-0.76-7.668-4.981-7.668c-4.225,0-6.786,2.556-7.688,7.668L400.146,69C399.244,74.112,400.905,76.668,405.128,76.668z
		 M297.681,112.499c2.372,2.926,3.024,7.429,1.951,13.502l-0.488,2.78c-0.706,3.999-1.937,7.296-3.689,9.889
		c-1.754,2.595-4.075,4.521-6.964,5.779c5.655,2.372,7.715,7.928,6.173,16.671l-1.116,6.333c-1.059,6.002-3.44,10.578-7.145,13.727
		c-3.705,3.149-8.595,4.723-14.669,4.723h-19.227l13.719-77.793h18.448C290.969,108.109,295.307,109.572,297.681,112.499z
		 M266.692,174.788h7.001c2.147,0,3.841-0.573,5.083-1.723c1.239-1.146,2.108-3.13,2.604-5.945l1.194-6.778
		c0.627-3.558,0.45-6.019-0.529-7.391c-0.981-1.369-2.879-2.057-5.695-2.057h-5.445L266.692,174.788z M272.865,139.781h4.779
		c2.444,0,4.39-0.629,5.833-1.89c1.445-1.259,2.429-3.37,2.951-6.332l0.764-4.336c0.497-2.813,0.355-4.851-0.422-6.112
		c-0.777-1.259-2.242-1.89-4.39-1.89h-5.89L272.865,139.781z M314.379,112.332c3.785-3.407,8.68-5.112,14.682-5.112
		c6,0,10.294,1.705,12.879,5.112c2.584,3.409,3.328,8.224,2.232,14.447l-7.133,40.453c-1.099,6.223-3.541,11.04-7.327,14.447
		c-3.788,3.408-8.681,5.111-14.682,5.111c-6.003,0-10.297-1.703-12.879-5.111c-2.585-3.407-3.328-8.225-2.231-14.447l7.133-40.453
		C308.149,120.555,310.591,115.741,314.379,112.332z M316.989,175.678c4.224,0,6.786-2.558,7.687-7.669L332.083,126
		c0.901-5.112-0.76-7.668-4.982-7.668s-6.785,2.556-7.687,7.668l-7.407,42.009C311.105,173.121,312.767,175.678,316.989,175.678z
		 M352.526,185.902h-11.003l13.717-77.793h15.338l4.347,46.563l8.21-46.563h10.892l-13.718,77.793h-12.557l-5.29-56.345
		L352.526,185.902z M415.029,108.109l-13.717,77.793h-12.225l13.718-77.793H415.029z M458.147,108.109l-1.958,11.112h-12.782
		l-11.757,66.681h-12.225l11.758-66.681h-12.779l1.959-11.112H458.147z M466.516,112.332c3.784-3.407,8.681-5.112,14.681-5.112
		c6.002,0,10.293,1.705,12.88,5.112c2.584,3.409,3.329,8.224,2.231,14.447l-7.133,40.453c-1.098,6.223-3.542,11.04-7.328,14.447
		c-3.784,3.408-8.68,5.111-14.681,5.111s-10.295-1.703-12.879-5.111c-2.587-3.407-3.328-8.225-2.231-14.447l7.134-40.453
		C460.286,120.555,462.728,115.741,466.516,112.332z M469.127,175.678c4.222,0,6.785-2.558,7.686-7.669L484.22,126
		c0.901-5.112-0.76-7.668-4.982-7.668s-6.785,2.556-7.687,7.668l-7.407,42.009C463.242,173.121,464.903,175.678,469.127,175.678z"/>
	<path fill="#CCCCCC" d="M236.655,8.722c-4.214-5.022-10.435-8.321-17.519-8.321H54.947c-14.107,0-26.26,11.4-28.898,26.365
		L2.399,159.897c-1.631,9.251,0.674,19.354,6.018,25.723c3.995,4.76,9.415,7.781,15.268,7.781h164.189
		c11.857,0,26.695-12.424,29.885-30.507l23.647-133.266C242.802,21.721,241.115,14.039,236.655,8.722z M110.554,146.659
		c-14.233,0-26.625-5.422-34.891-15.276c-8.478-10.102-11.728-23.721-9.148-38.347c5.452-30.917,35-56.069,65.866-56.069
		c14.237,0,26.629,5.425,34.893,15.276c8.478,10.104,11.727,23.72,9.148,38.345C170.97,121.505,141.422,146.659,110.554,146.659z
		 M19.221,176.239c-2.695-3.213-3.846-8.54-2.934-13.705L39.935,29.628c1.451-8.222,7.763-14.227,15.012-14.227h73.24l-1.329,7.619
		c-35.331,2.797-67.974,32.025-74.232,67.525c-3.315,18.802,1.028,36.53,12.234,49.883c9.397,11.198,22.626,17.906,37.808,19.671
		l-3.254,18.301H23.686C23.068,178.401,21.187,178.583,19.221,176.239z M227.521,27.299l-23.648,132.683
		c-1.593,9.041-9.817,18.419-15.997,18.419h-74.142l3.226-18.126c34.991-3.209,67.144-32.124,73.35-67.329
		c3.317-18.801-1.026-36.463-12.23-49.815c-9.22-10.987-22.134-17.875-36.958-19.796l1.387-7.933h76.629
		c2.882,0,5.205,1.036,6.715,2.836C227.585,20.302,228.177,23.578,227.521,27.299z"/>
	<path fill="#39B54A" d="M117.138,89.023l-1.549,8.785h-12.474l-4.477,25.389h-9.664l10.844-61.495h25.563l-1.548,8.786h-15.901
		l-3.268,18.536H117.138z M130.384,109.051c-0.702,3.984,0.616,5.974,3.955,5.974c3.337,0,5.357-1.99,6.06-5.974l2.385-13.527
		c0.713-4.042-0.6-6.062-3.938-6.062c-3.339,0-5.364,2.02-6.076,6.062l-0.326,1.844h-9.136l8.046-35.667h25.476l-1.55,8.786h-16.779
		l-3.377,14.67c2.341-2.987,5.416-4.48,9.225-4.48c3.513,0,5.966,1.201,7.358,3.602c1.391,2.401,1.685,5.886,0.879,10.453
		l-2.417,13.704c-0.877,4.979-2.781,8.8-5.711,11.465s-6.738,3.997-11.422,3.997c-4.686,0-8.023-1.332-10.013-3.997
		s-2.545-6.486-1.668-11.465l0.899-5.095h9.135L130.384,109.051z"/>
</g>
</svg>
